<?xml version="1.0" encoding="UTF-8" standalone="no"?>
<!-- Created with Inkscape (http://www.inkscape.org/) -->

<svg
   xmlns:dc="http://purl.org/dc/elements/1.1/"
   xmlns:cc="http://creativecommons.org/ns#"
   xmlns:rdf="http://www.w3.org/1999/02/22-rdf-syntax-ns#"
   xmlns:svg="http://www.w3.org/2000/svg"
   xmlns="http://www.w3.org/2000/svg"
   xmlns:sodipodi="http://sodipodi.sourceforge.net/DTD/sodipodi-0.dtd"
   xmlns:inkscape="http://www.inkscape.org/namespaces/inkscape"
   width="400"
   height="195"
   id="svg2"
   version="1.1"
   inkscape:version="0.48.0 r9654"
   sodipodi:docname="New document 1">
  <title
     id="title4001">Logo of Yellow Cab Pizza Co.</title>
  <defs
     id="defs4">
    <clipPath
       id="clipPath3349"
       clipPathUnits="userSpaceOnUse">
      <path
         id="path3351"
         d="m 0,0 566.929,0 0,425.197 L 0,425.197 0,0 z"
         inkscape:connector-curvature="0" />
    </clipPath>
    <clipPath
       id="clipPath3291"
       clipPathUnits="userSpaceOnUse">
      <path
         id="path3293"
         d="m 0,0 566.929,0 0,425.197 L 0,425.197 0,0 z"
         inkscape:connector-curvature="0" />
    </clipPath>
    <clipPath
       id="clipPath3243"
       clipPathUnits="userSpaceOnUse">
      <path
         id="path3245"
         d="m 0,0 566.929,0 0,425.197 L 0,425.197 0,0 z"
         inkscape:connector-curvature="0" />
    </clipPath>
    <clipPath
       id="clipPath3165"
       clipPathUnits="userSpaceOnUse">
      <path
         id="path3167"
         d="m 0,0 566.929,0 0,425.197 L 0,425.197 0,0 z"
         inkscape:connector-curvature="0" />
    </clipPath>
    <clipPath
       id="clipPath3039"
       clipPathUnits="userSpaceOnUse">
      <path
         id="path3041"
         d="m 0,0 566.929,0 0,425.197 L 0,425.197 0,0 z"
         inkscape:connector-curvature="0" />
    </clipPath>
    <clipPath
       id="clipPath3021"
       clipPathUnits="userSpaceOnUse">
      <path
         id="path3023"
         d="m -11.2047,78.6693 544.8707,0 0,-79.6693 -544.8707,0 0,79.6693 z"
         inkscape:connector-curvature="0" />
    </clipPath>
    <clipPath
       id="clipPath3013"
       clipPathUnits="userSpaceOnUse">
      <path
         id="path3015"
         d="m 0,0 566.929,0 0,425.197 L 0,425.197 0,0 z"
         inkscape:connector-curvature="0" />
    </clipPath>
    <clipPath
       id="clipPath2999"
       clipPathUnits="userSpaceOnUse">
      <path
         id="path3001"
         d="m 1.034,0.898 463.058,0 0,424.299 -463.058,0 0,-424.299 z"
         inkscape:connector-curvature="0" />
    </clipPath>
  </defs>
  <sodipodi:namedview
     id="base"
     pagecolor="#ffffff"
     bordercolor="#666666"
     borderopacity="1.0"
     inkscape:pageopacity="0.0"
     inkscape:pageshadow="2"
     inkscape:zoom="1"
     inkscape:cx="182.65427"
     inkscape:cy="41.149385"
     inkscape:document-units="px"
     inkscape:current-layer="layer1"
     showgrid="false"
     inkscape:window-width="1280"
     inkscape:window-height="750"
     inkscape:window-x="-8"
     inkscape:window-y="-8"
     inkscape:window-maximized="1" />
  <metadata
     id="metadata7">
    <rdf:RDF>
      <cc:Work
         rdf:about="">
        <dc:format>image/svg+xml</dc:format>
        <dc:type
           rdf:resource="http://purl.org/dc/dcmitype/StillImage" />
        <dc:title>Logo of Yellow Cab Pizza Co.</dc:title>
        <dc:date>March 25, 2011</dc:date>
        <dc:creator>
          <cc:Agent>
            <dc:title>Yellow Cab Pizza Co.</dc:title>
          </cc:Agent>
        </dc:creator>
        <dc:publisher>
          <cc:Agent>
            <dc:title>Yellow Cab Pizza Co.</dc:title>
          </cc:Agent>
        </dc:publisher>
        <dc:description>Logo of Yellow Cab Pizza Co.</dc:description>
        <dc:contributor>
          <cc:Agent>
            <dc:title>Philtro</dc:title>
          </cc:Agent>
        </dc:contributor>
        <dc:source>http://www.silvergroupqatar.com/Profile.pdf</dc:source>
      </cc:Work>
    </rdf:RDF>
  </metadata>
  <g
     inkscape:label="Layer 1"
     inkscape:groupmode="layer"
     id="layer1"
     transform="translate(0,-857.36218)">
    <g
       id="g3948"
       transform="matrix(1.874557,0,0,1.874557,-840.03148,-367.52728)">
      <g
         transform="matrix(1.25,0,0,-1.25,654.55601,653.81209)"
         id="g3327">
        <path
           id="path3329"
           style="fill:#000000;fill-opacity:1;fill-rule:nonzero;stroke:none"
           d="m 0,0 -159.503,0 c -3.089,0 -5.601,-2.512 -5.601,-5.603 l 0,-71.708 c 0,-3.092 2.512,-5.602 5.601,-5.602 l 159.503,0 c 3.089,0 5.603,2.51 5.603,5.602 l 0,71.708 C 5.603,-2.512 3.089,0 0,0 m 3.765,-77.311 c 0,-2.076 -1.689,-3.766 -3.765,-3.766 l -159.503,0 c -2.077,0 -3.765,1.69 -3.765,3.766 l 0,71.708 c 0,2.077 1.688,3.767 3.765,3.767 L 0,-1.836 c 2.076,0 3.765,-1.69 3.765,-3.767 l 0,-71.708 z"
           inkscape:connector-curvature="0" />
      </g>
      <g
         transform="matrix(1.25,0,0,-1.25,654.55601,654.95759)"
         id="g3331">
        <path
           id="path3333"
           style="fill:#fdb813;fill-opacity:1;fill-rule:nonzero;stroke:none"
           d="m 0,0 -159.503,0 c -2.586,0 -4.685,-2.099 -4.685,-4.686 l 0,-71.709 c 0,-2.589 2.099,-4.686 4.685,-4.686 l 159.503,0 c 2.588,0 4.685,2.097 4.685,4.686 l 0,71.709 C 4.685,-2.099 2.588,0 0,0"
           inkscape:connector-curvature="0" />
      </g>
      <g
         transform="matrix(1.25,0,0,-1.25,513.33351,665.39247)"
         id="g3335">
        <path
           id="path3337"
           style="fill:#000000;fill-opacity:1;fill-rule:nonzero;stroke:none"
           d="m 0,0 -3.415,0.918 -0.916,3.415 2.5,2.5 L 1.585,5.92 2.502,2.504 0,0 z"
           inkscape:connector-curvature="0" />
      </g>
      <path
         id="path3339"
         style="fill:#000000;fill-opacity:1;fill-rule:nonzero;stroke:none"
         d="m 588.40114,659.89772 -67.06625,0 0,2.445 67.06625,0 0,-2.445 z"
         inkscape:connector-curvature="0" />
      <g
         transform="matrix(1.25,0,0,-1.25,598.68776,665.39247)"
         id="g3341">
        <path
           id="path3343"
           style="fill:#000000;fill-opacity:1;fill-rule:nonzero;stroke:none"
           d="m 0,0 -3.416,0.918 -0.918,3.415 2.503,2.5 L 1.586,5.92 2.502,2.5 0,0 z"
           inkscape:connector-curvature="0" />
      </g>
      <g
         transform="matrix(1.25,0,0,-1.25,6.047389,785.80022)"
         id="g3345">
        <g
           clip-path="url(#clipPath3349)"
           id="g3347">
          <g
             transform="translate(373.4359,92.3967)"
             id="g3353">
            <path
               id="path3355"
               style="fill:#000000;fill-opacity:1;fill-rule:nonzero;stroke:none"
               d="m 0,0 c 0.093,0.551 0.623,0.999 1.18,0.999 l 1.497,0 c 0.556,0 0.919,-0.445 0.805,-0.99 L -1.28,-22.846 c -0.113,-0.545 -0.208,-1.448 -0.208,-2.006 l 0,-17.087 c 0,-0.559 -0.456,-1.014 -1.014,-1.014 l -1.493,0 c -0.559,0 -1.016,0.455 -1.016,1.014 l 0,17.087 c 0,0.558 -0.092,1.461 -0.205,2.006 L -9.98,0.009 c -0.113,0.545 0.251,0.99 0.808,0.99 l 1.495,0 c 0.556,0 1.089,-0.448 1.18,-0.999 l 3.027,-17.967 c 0.093,-0.549 0.192,-0.999 0.22,-0.999 0.031,0 0.13,0.45 0.223,0.999 L 0,0 z"
               inkscape:connector-curvature="0" />
          </g>
          <g
             transform="translate(380.3268,92.3846)"
             id="g3357">
            <path
               id="path3359"
               style="fill:#000000;fill-opacity:1;fill-rule:nonzero;stroke:none"
               d="m 0,0 c 0,0.558 0.456,1.011 1.014,1.011 l 7.312,0 C 8.885,1.011 9.338,0.558 9.338,0 l 0,-1.381 c 0,-0.558 -0.453,-1.014 -1.012,-1.014 l -3.789,0 c -0.558,0 -1.016,-0.458 -1.016,-1.016 l 0,-13.983 c 0,-0.558 0.458,-1.012 1.016,-1.012 l 3.521,0 c 0.559,0 1.016,-0.457 1.016,-1.015 l 0,-1.381 c 0,-0.558 -0.457,-1.014 -1.016,-1.014 l -3.521,0 c -0.558,0 -1.016,-0.456 -1.016,-1.014 l 0,-15.689 c 0,-0.558 0.458,-1.014 1.016,-1.014 l 3.789,0 c 0.559,0 1.012,-0.453 1.012,-1.014 l 0,-1.38 c 0,-0.559 -0.453,-1.014 -1.012,-1.014 l -7.312,0 C 0.456,-42.941 0,-42.486 0,-41.927 L 0,0 z"
               inkscape:connector-curvature="0" />
          </g>
          <g
             transform="translate(394.1504,92.3846)"
             id="g3361">
            <path
               id="path3363"
               style="fill:#000000;fill-opacity:1;fill-rule:nonzero;stroke:none"
               d="m 0,0 c 0,0.558 0.455,1.011 1.012,1.011 l 1.497,0 C 3.065,1.011 3.521,0.558 3.521,0 l 0,-38.519 c 0,-0.558 0.457,-1.014 1.014,-1.014 l 3.791,0 c 0.556,0 1.012,-0.453 1.012,-1.014 l 0,-1.38 c 0,-0.559 -0.456,-1.014 -1.012,-1.014 l -7.314,0 C 0.455,-42.941 0,-42.486 0,-41.927 L 0,0 z"
               inkscape:connector-curvature="0" />
          </g>
          <g
             transform="translate(407.9703,92.3846)"
             id="g3365">
            <path
               id="path3367"
               style="fill:#000000;fill-opacity:1;fill-rule:nonzero;stroke:none"
               d="m 0,0 c 0,0.558 0.457,1.011 1.014,1.011 l 1.495,0 C 3.068,1.011 3.521,0.558 3.521,0 l 0,-38.519 c 0,-0.558 0.46,-1.014 1.016,-1.014 l 3.789,0 c 0.556,0 1.012,-0.453 1.012,-1.014 l 0,-1.38 c 0,-0.559 -0.456,-1.014 -1.012,-1.014 l -7.312,0 C 0.457,-42.941 0,-42.486 0,-41.927 L 0,0 z"
               inkscape:connector-curvature="0" />
          </g>
          <g
             transform="translate(424.6062,86.2124)"
             id="g3369">
            <path
               id="path3371"
               style="fill:#000000;fill-opacity:1;fill-rule:nonzero;stroke:none"
               d="m 0,0 c 0,2.437 0.427,4.141 2.668,4.141 2.241,0 2.67,-1.704 2.67,-4.141 l 0,-29.586 c 0,-2.437 -0.429,-4.14 -2.67,-4.14 -2.241,0 -2.668,1.703 -2.668,4.14 L 0,0 z m -3.521,-29.709 c 0,-4.321 1.44,-7.427 6.189,-7.427 4.75,0 6.191,3.106 6.191,7.427 l 0,29.833 c 0,4.322 -1.441,7.428 -6.191,7.428 -4.749,0 -6.189,-3.106 -6.189,-7.428 l 0,-29.833 z"
               inkscape:connector-curvature="0" />
          </g>
          <g
             transform="translate(455.8653,92.3846)"
             id="g3373">
            <path
               id="path3375"
               style="fill:#000000;fill-opacity:1;fill-rule:nonzero;stroke:none"
               d="m 0,0 c 0.038,0.558 0.525,1.011 1.081,1.011 l 1.28,0 c 0.561,0 0.975,-0.453 0.927,-1.007 l -3.717,-41.936 c -0.048,-0.554 -0.546,-1.009 -1.103,-1.009 l -2.562,0 c -0.558,0 -1.047,0.455 -1.083,1.012 L -7.708,-4.87 c -0.038,0.558 -0.094,1.014 -0.124,1.014 -0.027,0 -0.082,-0.456 -0.12,-1.014 l -2.529,-37.059 c -0.038,-0.557 -0.525,-1.012 -1.084,-1.012 l -2.562,0 c -0.558,0 -1.056,0.455 -1.104,1.009 l -3.716,41.936 c -0.052,0.554 0.367,1.007 0.923,1.007 l 1.282,0 c 0.557,0 1.048,-0.453 1.089,-1.011 l 2.732,-37.302 c 0.041,-0.558 0.1,-1.013 0.127,-1.013 0.031,0 0.086,0.455 0.124,1.013 L -10.088,0 c 0.04,0.558 0.527,1.011 1.086,1.011 l 2.344,0 c 0.56,0 1.05,-0.453 1.09,-1.011 l 2.788,-37.302 c 0.041,-0.558 0.098,-1.013 0.127,-1.013 0.028,0 0.083,0.455 0.122,1.013 L 0,0 z"
               inkscape:connector-curvature="0" />
          </g>
          <g
             transform="translate(493.5916,66.0367)"
             id="g3377">
            <path
               id="path3379"
               style="fill:#000000;fill-opacity:1;fill-rule:nonzero;stroke:none"
               d="m 0,0 c 0.058,-0.554 -0.348,-1.009 -0.908,-1.009 l -3.414,0 c -0.56,0 -0.967,0.455 -0.906,1.009 l 2.453,23.307 c 0.059,0.556 0.131,1.009 0.158,1.009 0.031,0 0.101,-0.453 0.161,-1.009 L 0,0 z m 1.8,-15.587 c 0.067,-0.555 0.578,-1.006 1.134,-1.006 l 1.495,0 c 0.559,0 0.957,0.451 0.885,1.006 l -5.398,41.94 c -0.072,0.556 -0.587,1.006 -1.145,1.006 l -2.774,0 c -0.556,0 -1.071,-0.45 -1.143,-1.006 l -5.398,-41.94 c -0.071,-0.555 0.326,-1.006 0.885,-1.006 l 1.493,0 c 0.559,0 1.069,0.451 1.132,1.009 l 1.205,10.157 c 0.063,0.554 0.575,1.008 1.132,1.008 l 4.163,0 c 0.558,0 1.068,-0.454 1.133,-1.005 L 1.8,-15.587 z"
               inkscape:connector-curvature="0" />
          </g>
          <g
             transform="translate(510.646,72.3324)"
             id="g3381">
            <path
               id="path3383"
               style="fill:#000000;fill-opacity:1;fill-rule:nonzero;stroke:none"
               d="M 0,0 0,0.123 C 2.72,0.244 3.84,1.462 3.84,4.87 l 0,11.143 c 0,4.381 -2.081,5.05 -5.443,5.05 l -5.551,0 c -0.55,0 -1.004,-0.444 -1.014,-0.994 l 0,-0.017 0,-41.927 0,-0.017 c 0.01,-0.55 0.464,-0.997 1.014,-0.997 l 5.551,0 c 0.858,0 1.63,0.042 2.31,0.165 2.102,0.385 3.291,1.574 3.291,4.887 l 0,13.76 C 3.998,-1.031 2.454,-0.12 0,0 m -4.647,17.657 1.977,0 c 1.816,0 2.989,-0.426 2.989,-2.984 l 0,-9.863 c 0,-2.617 -0.961,-3.164 -2.615,-3.164 l -2.351,0 0,16.011 z m 5.124,-34.156 c 0,-2.556 -1.172,-2.982 -2.987,-2.982 l -1.121,0 c -0.556,0 -1.016,0.457 -1.016,1.014 l 0,16.703 2.351,0 c 1.654,0 2.773,-0.549 2.773,-2.679 l 0,-12.056 z"
               inkscape:connector-curvature="0" />
          </g>
          <g
             transform="translate(476.9402,82.8887)"
             id="g3385">
            <path
               id="path3387"
               style="fill:#000000;fill-opacity:1;fill-rule:nonzero;stroke:none"
               d="m 0,0 c 0.01,-0.552 0.46,-0.997 1.011,-0.997 l 1.494,0 c 0.56,0 1.016,0.457 1.016,1.014 l 0,4.771 c 0,2.973 -1.168,5.084 -3.525,5.808 -0.585,0.182 -1.238,0.28 -1.973,0.28 -3.682,0 -5.496,-2.377 -5.496,-6.088 l 0,-32.512 c 0,-3.712 1.814,-6.088 5.496,-6.088 0.735,0 1.388,0.098 1.973,0.278 2.357,0.724 3.525,2.836 3.525,5.81 l 0,5.258 c 0,0.557 -0.456,1.012 -1.016,1.012 l -1.494,0 C 0.46,-21.454 0.01,-21.9 0,-22.449 c 0,-0.006 -0.004,-0.011 -0.004,-0.017 l 0,-5.181 c -0.01,-1.853 -0.597,-2.756 -1.973,-2.756 -1.386,0 -1.973,0.915 -1.973,2.802 l 0,32.265 c 0,1.889 0.587,2.8 1.973,2.8 1.376,0 1.963,-0.899 1.973,-2.755 l 0,-4.692 C -0.004,0.012 0,0.005 0,0"
               inkscape:connector-curvature="0" />
          </g>
          <g
             transform="translate(520.1763,95.6723)"
             id="g3389">
            <path
               id="path3391"
               style="fill:#000000;fill-opacity:1;fill-rule:nonzero;stroke:none"
               d="M 0,0 C 0,1.165 -0.402,2.241 -1.067,3.094 -1.99,4.278 -3.425,5.041 -5.043,5.041 l -34.621,0 0,-1.947 30.645,0 2.289,0 0.388,0 1.098,0 0.402,0 C -3.222,2.991 -1.939,1.646 -1.939,0 c 0,-0.247 -0.003,-0.371 -0.003,-0.655 l 0,-0.827 0,-0.972 0,-1.52 0,-55.129 0,-1.52 0,-0.96 0,-0.772 c 0,-0.288 0.003,-0.475 0.003,-0.722 0,-1.646 -1.283,-2.991 -2.903,-3.094 -0.067,-0.003 -0.127,0 -0.194,0 -0.067,0 -0.141,-0.003 -0.208,0 l -1.287,0 -0.123,0 -2.365,0 -144.201,0 -2.488,0 c -0.041,0 -0.079,0.005 -0.12,0.008 l -1.037,0 -0.658,0 c -1.548,0.162 -2.753,1.459 -2.773,3.046 l 0,0.081 0,1.458 0,0.961 0,1.51 0,55.135 0,1.518 0,0.963 0,1.45 0,0.081 c 0.02,1.628 1.295,2.953 2.903,3.054 l 0.398,0 1.095,0 2.68,0 30.641,0 0,1.947 -34.615,0 c -2.783,0 -5.041,-2.258 -5.041,-5.041 l 0,-63.077 c 0,-1.864 1.012,-3.489 2.519,-4.362 0.581,-0.433 1.28,-0.68 2.158,-0.68 l 0.364,0 152.151,0 c 1.618,0 3.054,0.764 3.976,1.948 0.665,0.853 1.067,1.925 1.067,3.094 l 0.003,2.454 0,58.169 L 0,0 z"
               inkscape:connector-curvature="0" />
          </g>
          <g
             transform="translate(410.6988,43.7487)"
             id="g3393">
            <path
               id="path3395"
               style="fill:#000000;fill-opacity:1;fill-rule:nonzero;stroke:none"
               d="M 0,0 0,0.503 C 0.021,1.17 0.611,1.707 1.328,1.707 l 0.98,0 c 0.719,0 1.309,-0.537 1.33,-1.204 L 3.638,0 c 0,-0.683 -0.597,-1.241 -1.33,-1.241 l -0.98,0 C 0.597,-1.241 0,-0.683 0,0 m 0,-3.229 c 0,0.732 0.597,1.331 1.328,1.331 l 0.98,0 c 0.733,0 1.33,-0.599 1.33,-1.331 l 0,-6.813 c 0,-0.729 -0.597,-1.326 -1.33,-1.326 l -0.98,0 C 0.597,-11.368 0,-10.771 0,-10.042 l 0,6.813 z"
               inkscape:connector-curvature="0" />
          </g>
          <g
             transform="translate(407.6066,44.4109)"
             id="g3397">
            <path
               id="path3399"
               style="fill:#000000;fill-opacity:1;fill-rule:nonzero;stroke:none"
               d="m 0,0 c -0.731,0.697 -1.826,1.045 -3.288,1.045 l -3.974,0 -1.417,0 c -0.731,0 -1.33,-0.597 -1.33,-1.33 l 0,-10.419 c 0,-0.729 0.599,-1.326 1.33,-1.326 l 1.417,0 c 0.733,0 1.33,0.597 1.33,1.326 l 0,3.502 2.209,0 c 1.626,0 2.834,0.371 3.627,1.119 0.793,0.743 1.189,1.778 1.189,3.102 C 1.093,-1.694 0.728,-0.698 0,0 M -3.327,-4.13 C -3.638,-4.403 -4.18,-4.537 -4.952,-4.537 l -0.98,0 0,2.916 1.14,0 c 0.746,0 1.257,-0.141 1.527,-0.428 0.271,-0.285 0.406,-0.633 0.406,-1.043 0,-0.422 -0.158,-0.767 -0.468,-1.038"
               inkscape:connector-curvature="0" />
          </g>
          <g
             transform="translate(459.0843,38.9714)"
             id="g3401">
            <path
               id="path3403"
               style="fill:#000000;fill-opacity:1;fill-rule:nonzero;stroke:none"
               d="m 0,0 c 0,-1.163 0.185,-2.02 0.552,-2.564 0.484,-0.732 1.185,-1.1 2.094,-1.1 0.403,0 0.769,0.083 1.095,0.248 0.324,0.166 0.516,0.319 0.677,0.559 0.047,0.07 0.28,0.365 0.366,0.547 0.264,0.718 0.885,1.169 1.601,1.003 l 0.959,-0.219 c 0.704,-0.161 1.17,-0.715 1.028,-1.422 0,0 0.017,-0.165 -0.18,-0.588 C 7.996,-3.96 7.365,-5.043 6.435,-5.704 5.76,-6.184 4.901,-6.484 3.864,-6.62 3.454,-6.675 3.02,-6.704 2.555,-6.704 c -2.102,0 -3.727,0.582 -4.875,1.742 -1.15,1.161 -1.723,2.821 -1.723,4.984 l 0,-0.046 c 0,2.164 0.573,3.825 1.723,4.986 1.148,1.16 2.773,1.741 4.875,1.741 0.465,0 0.899,-0.028 1.309,-0.081 C 4.901,6.484 5.76,6.183 6.435,5.704 7.365,5.043 7.996,3.959 8.192,3.536 8.389,3.111 8.372,2.948 8.372,2.948 8.514,2.241 8.048,1.687 7.344,1.526 L 6.385,1.307 C 5.669,1.143 5.048,1.594 4.784,2.31 4.698,2.492 4.465,2.787 4.418,2.855 4.257,3.097 4.065,3.25 3.741,3.416 3.415,3.579 3.049,3.664 2.646,3.664 1.737,3.664 1.036,3.295 0.552,2.562 0.185,2.02 0,1.163 0,0"
               inkscape:connector-curvature="0" />
          </g>
          <g
             transform="translate(469.0332,37.0858)"
             id="g3405">
            <path
               id="path3407"
               style="fill:#000000;fill-opacity:1;fill-rule:nonzero;stroke:none"
               d="m 0,0 c 0,1.448 0.487,2.641 1.462,3.578 0.975,0.936 2.291,1.405 3.952,1.405 1.896,0 3.327,-0.549 4.298,-1.649 0.779,-0.889 1.17,-1.98 1.17,-3.279 0,-1.457 -0.485,-2.651 -1.448,-3.586 -0.968,-0.93 -2.306,-1.396 -4.012,-1.396 -1.523,0 -2.752,0.388 -3.692,1.16 C 0.575,-2.807 0,-1.551 0,0 m 3.636,0 c 0,-0.844 0.173,-1.467 0.517,-1.872 0.343,-0.405 0.772,-0.609 1.29,-0.609 0.527,0 0.959,0.2 1.295,0.6 0.335,0.398 0.503,1.037 0.503,1.919 C 7.241,0.86 7.073,1.469 6.733,1.87 6.394,2.273 5.971,2.474 5.47,2.474 4.942,2.474 4.501,2.27 4.156,1.862 3.809,1.457 3.636,0.834 3.636,0"
               inkscape:connector-curvature="0" />
          </g>
          <g
             transform="translate(481.3467,34.6868)"
             id="g3409">
            <path
               id="path3411"
               style="fill:#000000;fill-opacity:1;fill-rule:nonzero;stroke:none"
               d="m 0,0 c 0,0.733 0.597,1.33 1.328,1.33 l 1.23,0 C 3.289,1.33 3.887,0.733 3.887,0 l 0,-0.98 c 0,-0.729 -0.598,-1.326 -1.329,-1.326 l -1.23,0 C 0.597,-2.306 0,-1.709 0,-0.98 L 0,0 z"
               inkscape:connector-curvature="0" />
          </g>
          <g
             transform="translate(424.4175,34.8171)"
             id="g3413">
            <path
               id="path3415"
               style="fill:#000000;fill-opacity:1;fill-rule:nonzero;stroke:none"
               d="m 0,0 -4.189,0 4.376,4.499 c 0.445,0.457 0.426,0.982 0.426,0.982 l 0,0.659 c 0,0.49 -0.402,0.894 -0.893,0.894 l -6.994,0 c -0.494,0 -0.895,-0.404 -0.895,-0.894 l 0,-0.659 c 0,-0.491 0.401,-0.892 0.895,-0.892 l 3.329,0 L -8.111,0.3 c 0,0 -0.065,-0.056 -0.139,-0.175 -0.117,-0.166 -0.191,-0.355 -0.218,-0.55 -0.029,-0.136 -0.048,-0.29 -0.046,-0.469 l 0,-0.659 c 0,-0.487 0.403,-0.892 0.894,-0.892 l 7.62,0 c 0.493,0 0.892,0.405 0.892,0.892 l 0,0.659 C 0.892,-0.403 0.493,0 0,0"
               inkscape:connector-curvature="0" />
          </g>
          <g
             transform="translate(434.5792,34.8171)"
             id="g3417">
            <path
               id="path3419"
               style="fill:#000000;fill-opacity:1;fill-rule:nonzero;stroke:none"
               d="M 0,0 -4.189,0 0.187,4.499 C 0.63,4.956 0.613,5.481 0.613,5.481 l 0,0.659 c 0,0.49 -0.402,0.894 -0.893,0.894 l -6.997,0 c -0.491,0 -0.892,-0.404 -0.892,-0.894 l 0,-0.659 c 0,-0.491 0.401,-0.892 0.892,-0.892 l 3.332,0 L -8.113,0.3 c 0,0 -0.063,-0.056 -0.139,-0.175 -0.115,-0.166 -0.189,-0.355 -0.216,-0.55 -0.031,-0.136 -0.05,-0.29 -0.048,-0.469 l 0,-0.659 c 0,-0.487 0.403,-0.892 0.896,-0.892 l 7.62,0 c 0.493,0 0.894,0.405 0.894,0.892 l 0,0.659 C 0.894,-0.403 0.493,0 0,0"
               inkscape:connector-curvature="0" />
          </g>
          <g
             transform="translate(447.1209,33.2796)"
             id="g3421">
            <path
               id="path3423"
               style="fill:#000000;fill-opacity:1;fill-rule:nonzero;stroke:none"
               d="M 0,0 C -0.009,0.06 -0.021,0.115 -0.036,0.161 -0.031,0.132 -0.026,0.098 -0.021,0.069 -0.017,0.048 -0.004,0.019 0,0"
               inkscape:connector-curvature="0" />
          </g>
          <g
             transform="translate(443.7492,33.1323)"
             id="g3425">
            <path
               id="path3427"
               style="fill:#000000;fill-opacity:1;fill-rule:nonzero;stroke:none"
               d="M 0,0 C 0,0 0.005,-0.051 0.029,-0.125 0.019,-0.089 0.01,-0.045 0,0"
               inkscape:connector-curvature="0" />
          </g>
          <g
             transform="translate(447.1209,33.2796)"
             id="g3429">
            <path
               id="path3431"
               style="fill:#000000;fill-opacity:1;fill-rule:nonzero;stroke:none"
               d="m 0,0 c -0.004,0.019 -0.017,0.048 -0.021,0.069 -0.005,0.029 -0.01,0.063 -0.015,0.092 -0.045,0.244 -0.069,0.56 -0.069,0.956 l 0,4.183 c 0,0.447 -0.089,0.915 -0.269,1.406 -0.179,0.491 -0.422,0.87 -0.735,1.138 -0.145,0.128 -0.312,0.238 -0.483,0.339 -0.021,0.011 -0.043,0.023 -0.066,0.035 -0.147,0.065 -0.545,0.273 -1.106,0.434 -1.09,0.309 -2.785,0.537 -4.46,-0.007 C -7.759,8.47 -8.295,8.219 -8.806,7.847 -8.813,7.844 -8.82,7.84 -8.827,7.835 l 0.004,0 C -9.626,7.24 -10.261,6.442 -9.726,5.819 c 0.004,-0.01 0.01,-0.016 0.017,-0.021 0.059,-0.058 0.258,-0.254 0.57,-0.42 l 0.365,-0.16 c 0.175,-0.062 0.342,-0.089 0.5,-0.096 0.316,-0.005 0.649,0.119 1.077,0.469 0.091,0.104 0.234,0.233 0.39,0.357 0.002,0 0.003,0.003 0.003,0.003 0.798,0.794 2.216,1.007 2.833,0.439 0.014,-0.008 0.031,-0.017 0.043,-0.029 0.017,-0.017 0.029,-0.039 0.047,-0.06 0.003,-0.003 0.006,-0.009 0.01,-0.012 C -3.842,6.25 -3.813,6.212 -3.789,6.162 -3.698,5.985 -3.648,5.743 -3.648,5.433 -4.103,5.254 -4.534,5.112 -4.938,5.002 -5.347,4.89 -6.232,4.697 -7.598,4.424 -8.738,4.197 -9.52,3.851 -9.946,3.387 -10.368,2.922 -10.58,2.327 -10.58,1.608 c 0,-0.769 0.295,-1.416 0.882,-1.941 0.587,-0.523 1.448,-0.787 2.582,-0.787 0.856,0 1.601,0.132 2.246,0.393 0.474,0.192 0.947,0.519 1.424,0.976 0.024,-0.158 0.048,-0.287 0.074,-0.396 0.01,-0.045 0.019,-0.09 0.029,-0.126 0.076,-0.212 0.325,-0.626 1.147,-0.626 l 1.142,0 0.002,0 0.144,0 c 0.311,0.01 1.007,0.12 0.918,0.841 C 0.009,-0.038 0.004,-0.02 0,0 m -3.648,3.029 c 0,-0.46 -0.076,-0.831 -0.223,-1.116 C -4.017,1.625 -4.266,1.385 -4.617,1.184 -4.968,0.985 -5.347,0.887 -5.755,0.887 c -0.39,0 -0.687,0.093 -0.886,0.277 -0.2,0.18 -0.302,0.418 -0.302,0.706 0,0.256 0.102,0.479 0.307,0.678 0.198,0.196 0.668,0.388 1.413,0.589 0.545,0.139 1.07,0.298 1.575,0.477 l 0,-0.585 z"
               inkscape:connector-curvature="0" />
          </g>
        </g>
      </g>
    </g>
  </g>
</svg>
